<?xml version="1.0" encoding="UTF-8"?>
<svg xmlns="http://www.w3.org/2000/svg" xmlns:xlink="http://www.w3.org/1999/xlink" width="50px" height="50px" viewBox="0 0 50 50" version="1.1">
<g id="surface1">
<path style=" stroke:none;fill-rule:nonzero;fill:rgb(96.078432%,96.078432%,96.078432%);fill-opacity:1;" d="M 0 0 C 16.5 0 33 0 50 0 C 50 16.5 50 33 50 50 C 33.5 50 17 50 0 50 C 0 33.5 0 17 0 0 Z M 0 0 "/>
<path style=" stroke:none;fill-rule:nonzero;fill:rgb(1.568628%,1.568628%,1.568628%);fill-opacity:1;" d="M 23.601562 2 C 24.457031 2.058594 24.964844 2.660156 25.550781 3.226562 C 25.75 3.414062 25.949219 3.601562 26.148438 3.789062 C 26.25 3.886719 26.355469 3.988281 26.464844 4.089844 C 26.816406 4.414062 27.175781 4.726562 27.539062 5.035156 C 28.511719 5.878906 29.417969 6.785156 30.324219 7.699219 C 30.613281 7.988281 30.902344 8.277344 31.191406 8.5625 C 32.238281 9.609375 33.246094 10.671875 34.199219 11.800781 C 34.300781 11.917969 34.40625 12.039062 34.511719 12.160156 C 34.800781 12.496094 35.085938 12.835938 35.375 13.175781 C 35.519531 13.34375 35.519531 13.34375 35.667969 13.519531 C 36.375 14.351562 36.375 14.351562 36.601562 14.800781 C 38.351562 14.824219 40.078125 14.777344 41.828125 14.636719 C 42.21875 14.609375 42.609375 14.601562 43 14.601562 C 43.507812 15.109375 43.496094 15.394531 43.59375 16.105469 C 43.625 16.335938 43.65625 16.566406 43.6875 16.804688 C 43.722656 17.054688 43.753906 17.304688 43.789062 17.5625 C 43.820312 17.820312 43.855469 18.074219 43.890625 18.339844 C 44.136719 20.210938 44.351562 22.085938 44.550781 23.960938 C 44.574219 24.203125 44.601562 24.441406 44.628906 24.691406 C 44.691406 25.328125 44.75 25.960938 44.800781 26.601562 C 44.8125 26.753906 44.824219 26.910156 44.839844 27.070312 C 44.886719 28.078125 44.625 28.695312 44.113281 29.550781 C 44.039062 29.671875 43.96875 29.789062 43.894531 29.914062 C 42.625 31.984375 41.078125 33.871094 39.472656 35.691406 C 39.21875 35.980469 38.96875 36.269531 38.71875 36.5625 C 36.105469 39.410156 32.3125 41.121094 28.941406 42.910156 C 28.410156 43.195312 27.886719 43.480469 27.359375 43.769531 C 25.5 44.773438 23.621094 45.683594 21.675781 46.5 C 21.480469 46.582031 21.285156 46.664062 21.085938 46.75 C 19.8125 47.269531 18.535156 47.667969 17.199219 48 C 16.121094 46.550781 15.253906 45.054688 14.449219 43.4375 C 14.390625 43.320312 14.332031 43.199219 14.269531 43.078125 C 12.355469 39.230469 10.699219 35.089844 9.648438 30.925781 C 9.578125 30.644531 9.578125 30.644531 9.503906 30.359375 C 9.398438 29.800781 9.398438 29.800781 9.398438 28.601562 C 7.320312 28.5 7.320312 28.5 5.199219 28.398438 C 5.199219 26.601562 5.199219 26.601562 5.332031 25.945312 C 5.363281 25.796875 5.394531 25.648438 5.425781 25.492188 C 5.457031 25.335938 5.488281 25.179688 5.523438 25.015625 C 5.558594 24.84375 5.59375 24.675781 5.628906 24.5 C 5.742188 23.9375 5.859375 23.378906 5.972656 22.820312 C 6.054688 22.429688 6.132812 22.035156 6.210938 21.644531 C 6.421875 20.613281 6.632812 19.585938 6.84375 18.554688 C 7.058594 17.511719 7.273438 16.46875 7.484375 15.425781 C 7.828125 13.738281 8.175781 12.046875 8.523438 10.359375 C 8.550781 10.210938 8.582031 10.058594 8.613281 9.90625 C 8.644531 9.757812 8.675781 9.613281 8.707031 9.460938 C 8.773438 9.128906 8.839844 8.796875 8.90625 8.460938 C 8.941406 8.285156 8.976562 8.105469 9.011719 7.921875 C 9.042969 7.761719 9.074219 7.597656 9.105469 7.429688 C 9.199219 7 9.199219 7 9.398438 6.398438 C 10.421875 6.472656 10.933594 7.027344 11.605469 7.730469 C 11.71875 7.84375 11.832031 7.957031 11.945312 8.070312 C 12.304688 8.433594 12.660156 8.796875 13.011719 9.164062 C 13.25 9.40625 13.492188 9.648438 13.730469 9.890625 C 14.171875 10.339844 14.609375 10.785156 15.046875 11.234375 C 15.496094 11.691406 15.945312 12.148438 16.398438 12.601562 C 16.519531 12.40625 16.636719 12.210938 16.761719 12.011719 C 17.980469 10.03125 19.265625 8.105469 20.601562 6.199219 C 20.851562 5.839844 21.101562 5.476562 21.355469 5.117188 C 21.613281 4.75 21.867188 4.378906 22.125 4.011719 C 22.25 3.835938 22.371094 3.660156 22.5 3.476562 C 22.613281 3.3125 22.726562 3.148438 22.84375 2.980469 C 22.949219 2.835938 23.050781 2.691406 23.15625 2.539062 C 23.398438 2.199219 23.398438 2.199219 23.601562 2 Z M 23.601562 2 "/>
<path style=" stroke:none;fill-rule:nonzero;fill:rgb(95.294118%,95.294118%,95.294118%);fill-opacity:1;" d="M 23.601562 23.199219 C 23.316406 24.511719 23 25.8125 22.664062 27.113281 C 22.609375 27.3125 22.558594 27.511719 22.503906 27.714844 C 22.074219 29.351562 21.605469 30.976562 21.121094 32.597656 C 20.652344 34.199219 20.226562 35.808594 19.8125 37.425781 C 19.511719 38.589844 19.179688 39.734375 18.816406 40.878906 C 18.289062 42.636719 17.855469 44.421875 17.398438 46.199219 C 17.269531 46.199219 17.136719 46.199219 17 46.199219 C 15.164062 42.808594 13.542969 39.421875 12.199219 35.800781 C 12.136719 35.636719 12.078125 35.472656 12.011719 35.300781 C 10.164062 30.363281 10.164062 30.363281 10.199219 28.398438 C 12.171875 27.453125 14.207031 26.6875 16.25 25.914062 C 16.925781 25.65625 17.601562 25.398438 18.277344 25.136719 C 18.441406 25.074219 18.605469 25.015625 18.773438 24.949219 C 20.070312 24.453125 21.359375 23.9375 22.644531 23.410156 C 23.199219 23.199219 23.199219 23.199219 23.601562 23.199219 Z M 23.601562 23.199219 "/>
<path style=" stroke:none;fill-rule:nonzero;fill:rgb(95.294118%,95.294118%,95.294118%);fill-opacity:1;" d="M 24.199219 3.398438 C 24.601562 3.398438 24.601562 3.398438 25.058594 3.832031 C 25.238281 4.019531 25.414062 4.207031 25.601562 4.398438 C 26.714844 5.53125 27.828125 6.644531 29.035156 7.679688 C 30.035156 8.558594 30.929688 9.53125 31.796875 10.542969 C 32.191406 10.992188 32.59375 11.429688 33 11.867188 C 34.054688 13.003906 35.050781 14.171875 36 15.398438 C 35.699219 16.089844 35.300781 16.566406 34.789062 17.113281 C 33.984375 17.988281 33.222656 18.894531 32.476562 19.816406 C 31.875 20.554688 31.253906 21.277344 30.636719 22 C 29.863281 22.90625 29.140625 23.847656 28.433594 24.808594 C 28.230469 25.078125 28.015625 25.339844 27.800781 25.601562 C 27.667969 25.601562 27.535156 25.601562 27.398438 25.601562 C 27.136719 25.304688 26.890625 25 26.648438 24.6875 C 26.507812 24.507812 26.367188 24.324219 26.21875 24.136719 C 26.011719 23.871094 26.011719 23.871094 25.800781 23.601562 C 25.054688 22.601562 25.054688 22.601562 24 22 C 24.066406 15.863281 24.132812 9.722656 24.199219 3.398438 Z M 24.199219 3.398438 "/>
<path style=" stroke:none;fill-rule:nonzero;fill:rgb(94.901961%,94.901961%,94.901961%);fill-opacity:1;" d="M 41.800781 16 C 41.996094 16.097656 41.996094 16.097656 42.199219 16.199219 C 40.894531 21.3125 40.894531 21.3125 40.1875 23.738281 C 39.6875 25.449219 39.25 27.175781 38.824219 28.90625 C 38.503906 30.191406 38.164062 31.464844 37.789062 32.734375 C 37.425781 34.011719 37.117188 35.308594 36.800781 36.601562 C 36.667969 36.601562 36.535156 36.601562 36.398438 36.601562 C 36.054688 36.195312 35.730469 35.785156 35.414062 35.363281 C 34.652344 34.371094 33.875 33.398438 33.0625 32.449219 C 32.292969 31.550781 31.542969 30.640625 30.8125 29.710938 C 30.5 29.320312 30.179688 28.945312 29.851562 28.570312 C 29.757812 28.464844 29.664062 28.355469 29.566406 28.246094 C 29.300781 27.941406 29.03125 27.636719 28.761719 27.332031 C 28.398438 26.800781 28.398438 26.800781 28.398438 26.367188 C 28.652344 25.90625 28.917969 25.695312 29.351562 25.386719 C 30.140625 24.804688 30.894531 24.191406 31.636719 23.550781 C 32.765625 22.585938 33.921875 21.660156 35.09375 20.75 C 35.5625 20.386719 36.027344 20.019531 36.488281 19.644531 C 37.730469 18.636719 38.996094 17.707031 40.351562 16.851562 C 40.488281 16.761719 40.625 16.671875 40.769531 16.582031 C 41.105469 16.375 41.453125 16.183594 41.800781 16 Z M 41.800781 16 "/>
<path style=" stroke:none;fill-rule:nonzero;fill:rgb(91.764706%,91.764706%,91.764706%);fill-opacity:1;" d="M 9.398438 10.800781 C 9.464844 10.800781 9.53125 10.800781 9.601562 10.800781 C 9.605469 12.695312 9.609375 14.589844 9.609375 16.484375 C 9.613281 17.367188 9.613281 18.246094 9.613281 19.125 C 9.617188 19.976562 9.617188 20.828125 9.617188 21.679688 C 9.621094 22 9.621094 22.324219 9.621094 22.648438 C 9.625 24.3125 9.609375 25.945312 9.398438 27.601562 C 8.34375 27.601562 7.289062 27.601562 6.199219 27.601562 C 6.3125 25.949219 6.585938 24.367188 6.933594 22.75 C 7.09375 22.007812 7.25 21.269531 7.402344 20.527344 C 7.433594 20.371094 7.46875 20.21875 7.5 20.058594 C 7.953125 17.886719 8.351562 15.703125 8.753906 13.523438 C 8.785156 13.367188 8.8125 13.214844 8.839844 13.058594 C 8.894531 12.773438 8.949219 12.488281 9 12.199219 C 9.175781 11.246094 9.175781 11.246094 9.398438 10.800781 Z M 9.398438 10.800781 "/>
<path style=" stroke:none;fill-rule:nonzero;fill:rgb(92.156863%,92.156863%,92.156863%);fill-opacity:1;" d="M 11.398438 9 C 15.605469 12.503906 19.148438 17.328125 20.800781 22.601562 C 20.800781 22.863281 20.800781 23.128906 20.800781 23.398438 C 20.324219 23.625 19.945312 23.804688 19.410156 23.789062 C 18.761719 23.492188 18.605469 23 18.285156 22.378906 C 18.21875 22.25 18.152344 22.125 18.082031 21.992188 C 17.867188 21.574219 17.652344 21.15625 17.4375 20.738281 C 17.285156 20.449219 17.136719 20.15625 16.984375 19.867188 C 16.675781 19.273438 16.367188 18.675781 16.058594 18.082031 C 15.433594 16.878906 14.792969 15.683594 14.152344 14.492188 C 13.96875 14.148438 13.785156 13.804688 13.601562 13.460938 C 13.484375 13.246094 13.371094 13.035156 13.253906 12.816406 C 13.089844 12.511719 13.089844 12.511719 12.925781 12.203125 C 12.703125 11.789062 12.476562 11.378906 12.25 10.96875 C 12.136719 10.769531 12.027344 10.570312 11.914062 10.367188 C 11.765625 10.101562 11.765625 10.101562 11.613281 9.832031 C 11.398438 9.398438 11.398438 9.398438 11.398438 9 Z M 11.398438 9 "/>
</g>
</svg>
