<?xml version="1.0" encoding="UTF-8"?>
<svg version="1.1" xmlns="http://www.w3.org/2000/svg" width="250" height="250">
<path d="M0 0 C82.5 0 165 0 250 0 C250 82.5 250 165 250 250 C167.5 250 85 250 0 250 C0 167.5 0 85 0 0 Z " fill="#F5F5F5" transform="translate(0,0)"/>
<path d="M0 0 C4.28684234 0.29496622 6.82060821 3.30076586 9.75 6.125 C10.74376726 7.06618698 11.73857926 8.00627196 12.734375 8.9453125 C13.25845947 9.44184326 13.78254395 9.93837402 14.32250977 10.44995117 C16.07908076 12.07307288 17.88271572 13.62794806 19.69921875 15.18359375 C24.54951102 19.40345213 29.08473546 23.93433454 33.6184082 28.48803711 C35.06025221 29.93524385 36.50737116 31.37702026 37.95507812 32.81835938 C43.18241254 38.04144101 48.22631858 43.35837651 53 49 C53.51151611 49.59514404 54.02303223 50.19028809 54.55004883 50.8034668 C55.9980083 52.48871964 57.43765107 54.18069484 58.875 55.875 C59.60203125 56.72578125 59.60203125 56.72578125 60.34375 57.59375 C63.88265306 61.76530612 63.88265306 61.76530612 65 64 C73.76223265 64.12678472 82.39973987 63.89496904 91.13232422 63.17993164 C93.08432215 63.04276538 95.04322924 63.01259724 97 63 C99.5483916 65.5483916 99.48521477 66.97509272 99.96484375 70.51953125 C100.1237207 71.67364502 100.28259766 72.82775879 100.44628906 74.0168457 C100.60838867 75.26941162 100.77048828 76.52197754 100.9375 77.8125 C101.10862305 79.09664795 101.27974609 80.3807959 101.45605469 81.70385742 C102.6874758 91.05857466 103.76091981 100.42921274 104.75 109.8125 C104.87753662 111.01430908 105.00507324 112.21611816 105.13647461 113.4543457 C105.45808329 116.63454779 105.74575886 119.81376274 106 123 C106.06501709 123.77811035 106.13003418 124.5562207 106.19702148 125.35791016 C106.4330266 130.38668064 105.13213399 133.48230378 102.5625 137.75 C102.20196533 138.34997803 101.84143066 138.94995605 101.4699707 139.56811523 C95.1214941 149.92385414 87.39091348 159.36171162 79.36328125 168.45361328 C78.09363002 169.89379431 76.84289061 171.3505871 75.59375 172.80859375 C62.52624799 187.05465211 43.56778587 195.60214717 26.70996094 204.5546875 C24.06032427 205.96782706 21.42400416 207.40343459 18.7890625 208.84375 C9.50636576 213.87180433 0.11102046 218.41150528 -9.625 222.5 C-10.59614746 222.90943848 -11.56729492 223.31887695 -12.56787109 223.74072266 C-18.93390863 226.34764178 -25.3249021 228.3430032 -32 230 C-37.39431104 222.75839187 -41.73430628 215.26692478 -45.75 207.1875 C-46.04759216 206.59227539 -46.34518433 205.99705078 -46.65179443 205.38378906 C-56.21841646 186.16022785 -64.50056032 165.44777741 -69.75 144.625 C-70.11351562 143.22121094 -70.11351562 143.22121094 -70.484375 141.7890625 C-71 139 -71 139 -71 133 C-81.395 132.505 -81.395 132.505 -92 132 C-92 123.00000967 -92 123.00000967 -91.33010864 119.72647095 C-91.18154419 118.98106552 -91.03297974 118.2356601 -90.87991333 117.46766663 C-90.71474213 116.67992355 -90.54957092 115.89218048 -90.37939453 115.08056641 C-90.20704285 114.22739334 -90.03469116 113.37422028 -89.8571167 112.49519348 C-89.28970534 109.69576165 -88.71133546 106.89871719 -88.1328125 104.1015625 C-87.73335402 102.14169025 -87.33459207 100.18167592 -86.93649292 98.2215271 C-85.88868413 93.07177896 -84.83158269 87.92398195 -83.77246094 82.77655029 C-82.70086335 77.56049247 -81.63784121 72.34268881 -80.57421875 67.125 C-78.85251367 58.68323203 -77.12615868 50.24243391 -75.3911438 41.8033905 C-75.2369397 41.05234543 -75.0827356 40.30130035 -74.92385864 39.52749634 C-74.77347263 38.79562733 -74.62308662 38.06375832 -74.46814346 37.30971146 C-74.13075462 35.64511304 -73.80014829 33.97913479 -73.47384262 32.31232834 C-73.29933704 31.42183414 -73.12483147 30.53133995 -72.94503784 29.61386108 C-72.787973 28.80335989 -72.63090816 27.9928587 -72.46908379 27.15779686 C-72 25 -72 25 -71 22 C-65.89227185 22.35422197 -63.34160301 25.13632693 -59.96484375 28.64453125 C-59.40430801 29.21072678 -58.84377228 29.7769223 -58.26625061 30.36027527 C-56.48036658 32.16848732 -54.70888072 33.99008888 -52.9375 35.8125 C-51.74246742 37.02760899 -50.54651304 38.24181214 -49.34960938 39.45507812 C-47.14779134 41.68950403 -44.95143435 43.92900078 -42.76147461 46.17504883 C-40.52239696 48.46559498 -38.27102105 50.74121615 -36 53 C-35.40574219 52.030625 -34.81148437 51.06125 -34.19921875 50.0625 C-28.09157018 40.15941978 -21.66659197 30.53343292 -15 21 C-13.7420614 19.19409825 -12.48425565 17.38810395 -11.2265625 15.58203125 C-9.94308388 13.7419255 -8.6592341 11.90207857 -7.375 10.0625 C-6.75850586 9.17916992 -6.14201172 8.29583984 -5.50683594 7.38574219 C-4.93481445 6.56879883 -4.36279297 5.75185547 -3.7734375 4.91015625 C-3.26216309 4.17933838 -2.75088867 3.44852051 -2.22412109 2.69555664 C-1 1 -1 1 0 0 Z " fill="#040404" transform="translate(118,10)"/>
<path d="M0 0 C-1.42172088 6.56127522 -2.99254543 13.06667675 -4.6875 19.5625 C-4.94660156 20.55701172 -5.20570312 21.55152344 -5.47265625 22.57617188 C-7.62776097 30.7604386 -9.98185164 38.87792126 -12.38671875 46.99169922 C-14.74468805 54.99549214 -16.86992571 63.04691223 -18.94140625 71.12890625 C-20.43889002 76.94171959 -22.09556043 82.66787779 -23.921875 88.38671875 C-26.54596849 97.18123497 -28.72585749 106.10965229 -31 115 C-31.66 115 -32.32 115 -33 115 C-42.17322984 98.04721914 -50.28794038 81.1039698 -57 63 C-57.30905273 62.17757812 -57.61810547 61.35515625 -57.93652344 60.5078125 C-67.17691216 35.81134049 -67.17691216 35.81134049 -67 26 C-57.14884943 21.25937715 -46.95960042 17.44299783 -36.75 13.5625 C-33.3691525 12.27380579 -29.98915647 10.98289324 -26.609375 9.69140625 C-25.79408325 9.38063141 -24.9787915 9.06985657 -24.13879395 8.74966431 C-17.65025051 6.26923481 -11.2085682 3.68369189 -4.78222656 1.04663086 C-2 0 -2 0 0 0 Z " fill="#F3F3F3" transform="translate(118,116)"/>
<path d="M0 0 C2 0 2 0 4.29296875 2.1640625 C5.18628906 3.09992187 6.07960938 4.03578125 7 5 C12.57798399 10.65302413 18.13565646 16.22222275 24.16796875 21.39453125 C29.18537007 25.79144371 33.64198783 30.65751732 37.98828125 35.70703125 C39.95771336 37.95180144 41.97571066 40.14599242 44.00756836 42.33422852 C49.28270642 48.01826408 54.25715791 53.85740795 59 60 C57.49993609 63.44779086 55.49590738 65.82360533 52.9375 68.5625 C48.916193 72.94938036 45.12029282 77.46353792 41.37890625 82.08984375 C38.36768927 85.77351641 35.27032414 89.37988116 32.17651367 92.99414062 C28.32142342 97.53640427 24.69435421 102.23398191 21.17211914 107.03857422 C20.15988596 108.39396223 19.08526659 109.70235247 18 111 C17.34 111 16.68 111 16 111 C14.68846237 109.53190495 13.45005925 107.99804216 12.25 106.4375 C11.53972656 105.53 10.82945312 104.6225 10.09765625 103.6875 C9.05931641 102.3571875 9.05931641 102.3571875 8 101 C4.26863117 96.00609523 4.26863117 96.00609523 -1 93 C-0.67 62.31 -0.34 31.62 0 0 Z " fill="#F3F3F3" transform="translate(121,17)"/>
<path d="M0 0 C0.99 0.495 0.99 0.495 2 1 C-4.52211242 26.56190984 -4.52211242 26.56190984 -8.0625 38.6875 C-10.56063502 47.25110683 -12.75635973 55.87210579 -14.88647461 64.53393555 C-16.47165121 70.95901004 -18.18904043 77.31459138 -20.0546875 83.6640625 C-21.86881757 90.06599258 -23.42190728 96.53653514 -25 103 C-25.66 103 -26.32 103 -27 103 C-28.72335636 100.97270072 -30.3381169 98.93466777 -31.9375 96.8125 C-35.74473338 91.85759537 -39.6232305 86.99664422 -43.6875 82.25 C-47.53004754 77.75334454 -51.28332636 73.20223978 -54.9375 68.55078125 C-56.5070529 66.60964859 -58.10149942 64.72758119 -59.75 62.85546875 C-60.21656006 62.31865479 -60.68312012 61.78184082 -61.16381836 61.22875977 C-62.49754831 59.69947507 -63.84416639 58.18145896 -65.19140625 56.6640625 C-67 54 -67 54 -67.01171875 51.83984375 C-65.73697575 49.52168178 -64.40611357 48.4758949 -62.25 46.9375 C-58.3061803 44.01545981 -54.53365383 40.94798059 -50.8125 37.75 C-45.1669999 32.9298218 -39.39063343 28.30561741 -33.52734375 23.75390625 C-31.18417403 21.93431377 -28.86658643 20.08845699 -26.56640625 18.21484375 C-20.35189006 13.17971835 -14.01099882 8.53206728 -7.25 4.25 C-6.55793457 3.80712646 -5.86586914 3.36425293 -5.15283203 2.90795898 C-3.47507843 1.87118037 -1.74139424 0.92591206 0 0 Z " fill="#F2F2F2" transform="translate(209,80)"/>
<path d="M0 0 C0.33 0 0.66 0 1 0 C1.02325394 9.47569051 1.04098128 18.95137107 1.05181217 28.42708397 C1.05701258 32.82786447 1.06405815 37.22862533 1.07543945 41.62939453 C1.08636991 45.88285132 1.0922982 50.13628931 1.09487724 54.38975906 C1.09671329 56.00590943 1.10029834 57.62205886 1.10573006 59.23820114 C1.13254307 67.55293793 1.03953791 75.73405495 0 84 C-5.28 84 -10.56 84 -16 84 C-15.44564343 75.74150849 -14.07196406 67.82704468 -12.33209229 59.7487793 C-11.53525598 56.04645376 -10.75921702 52.33979437 -9.984375 48.6328125 C-9.82240631 47.85895203 -9.66043762 47.08509155 -9.49356079 46.28778076 C-7.2365796 35.42697097 -5.23482231 24.51614942 -3.22216797 13.60791016 C-3.08027039 12.84487579 -2.9383728 12.08184143 -2.79217529 11.29568481 C-2.52603085 9.86411186 -2.26242188 8.43206439 -2.00177002 6.9994812 C-1.11257937 2.22515874 -1.11257937 2.22515874 0 0 Z " fill="#EAEAEA" transform="translate(47,54)"/>
<path d="M0 0 C21.01957401 17.51181455 38.74868325 41.63695599 47 68 C47 69.32 47 70.64 47 72 C44.61503186 73.12623495 42.71740725 74.0218486 40.05200195 73.94067383 C36.81309297 72.45590092 36.02555512 70.00906669 34.41796875 66.88671875 C34.08681061 66.2534668 33.75565247 65.62021484 33.41445923 64.96777344 C32.32629953 62.88058161 31.25718038 60.78421343 30.1875 58.6875 C29.43531184 57.23792236 28.68163321 55.78911722 27.92651367 54.34106445 C26.37518298 51.36414659 24.82976012 48.38427284 23.28808594 45.40234375 C20.17196641 39.38955436 16.97218269 33.42211581 13.76431274 27.45791626 C12.84074655 25.74003991 11.91972245 24.02079764 10.9987793 22.30151367 C10.42812744 21.23650635 9.85747559 20.17149902 9.26953125 19.07421875 C8.45669678 17.55707275 8.45669678 17.55707275 7.62744141 16.00927734 C6.51148989 13.94578823 5.38287745 11.88911079 4.24365234 9.83837891 C3.69273926 8.84628418 3.14182617 7.85418945 2.57421875 6.83203125 C1.8311145 5.50715698 1.8311145 5.50715698 1.07299805 4.15551758 C0 2 0 2 0 0 Z " fill="#EBEBEB" transform="translate(57,45)"/>
</svg>
