<?xml version="1.0" encoding="UTF-8"?>
<svg xmlns="http://www.w3.org/2000/svg" xmlns:xlink="http://www.w3.org/1999/xlink" width="40px" height="40px" viewBox="0 0 40 40" version="1.1">
<g id="surface1">
<path style=" stroke:none;fill-rule:nonzero;fill:rgb(1.568628%,1.568628%,1.568628%);fill-opacity:1;" d="M 19.433594 0.433594 C 20.191406 0.480469 20.625 0.992188 21.144531 1.480469 C 21.320312 1.632812 21.496094 1.792969 21.671875 1.960938 C 21.761719 2.046875 21.855469 2.128906 21.945312 2.214844 C 22.265625 2.488281 22.574219 2.761719 22.894531 3.023438 C 23.753906 3.734375 24.550781 4.511719 25.34375 5.289062 C 25.601562 5.535156 25.855469 5.785156 26.113281 6.023438 C 27.03125 6.921875 27.921875 7.824219 28.761719 8.785156 C 28.847656 8.886719 28.945312 8.992188 29.03125 9.089844 C 29.289062 9.375 29.542969 9.664062 29.800781 9.960938 C 29.921875 10.097656 29.921875 10.097656 30.054688 10.246094 C 30.679688 10.953125 30.679688 10.953125 30.871094 11.335938 C 32.40625 11.351562 33.9375 11.320312 35.472656 11.199219 C 35.816406 11.175781 36.160156 11.167969 36.503906 11.167969 C 36.953125 11.601562 36.945312 11.839844 37.023438 12.457031 C 37.054688 12.648438 37.089844 12.847656 37.113281 13.039062 C 37.136719 13.257812 37.167969 13.464844 37.199219 13.6875 C 37.222656 13.910156 37.265625 14.121094 37.289062 14.351562 C 37.503906 15.945312 37.695312 17.542969 37.871094 19.136719 C 37.886719 19.34375 37.910156 19.542969 37.945312 19.761719 C 38 20.304688 38.046875 20.839844 38.097656 21.382812 C 38.105469 21.511719 38.113281 21.648438 38.128906 21.785156 C 38.167969 22.640625 37.945312 23.167969 37.488281 23.894531 C 37.425781 24 37.367188 24.105469 37.296875 24.199219 C 36.183594 25.960938 34.824219 27.566406 33.40625 29.121094 C 33.191406 29.367188 32.96875 29.617188 32.753906 29.863281 C 30.457031 32.289062 27.113281 33.742188 24.152344 35.273438 C 23.6875 35.519531 23.230469 35.761719 22.761719 36.007812 C 21.128906 36.855469 19.472656 37.632812 17.769531 38.335938 C 17.59375 38.40625 17.425781 38.472656 17.246094 38.550781 C 16.121094 38.992188 15.007812 39.335938 13.824219 39.617188 C 12.871094 38.382812 12.113281 37.105469 11.40625 35.734375 C 11.351562 35.632812 11.304688 35.527344 11.246094 35.433594 C 9.566406 32.152344 8.113281 28.632812 7.183594 25.089844 C 7.121094 24.839844 7.121094 24.839844 7.054688 24.601562 C 6.96875 24.121094 6.96875 24.121094 6.96875 23.105469 C 5.136719 23.015625 5.136719 23.015625 3.273438 22.9375 C 3.273438 21.398438 3.273438 21.398438 3.382812 20.847656 C 3.40625 20.71875 3.441406 20.59375 3.472656 20.457031 C 3.496094 20.328125 3.527344 20.191406 3.550781 20.054688 C 3.585938 19.902344 3.617188 19.769531 3.648438 19.617188 C 3.742188 19.136719 3.847656 18.664062 3.945312 18.183594 C 4.015625 17.847656 4.089844 17.519531 4.152344 17.175781 C 4.335938 16.296875 4.519531 15.433594 4.703125 14.542969 C 4.894531 13.65625 5.078125 12.777344 5.265625 11.886719 C 5.566406 10.449219 5.878906 9.007812 6.175781 7.566406 C 6.199219 7.441406 6.230469 7.3125 6.257812 7.183594 C 6.28125 7.054688 6.320312 6.929688 6.34375 6.800781 C 6.398438 6.519531 6.457031 6.238281 6.519531 5.953125 C 6.542969 5.808594 6.585938 5.65625 6.609375 5.496094 C 6.632812 5.359375 6.664062 5.222656 6.695312 5.078125 C 6.777344 4.710938 6.777344 4.710938 6.953125 4.199219 C 7.847656 4.257812 8.296875 4.734375 8.894531 5.335938 C 8.992188 5.433594 9.089844 5.527344 9.191406 5.625 C 9.496094 5.929688 9.816406 6.246094 10.128906 6.550781 C 10.335938 6.769531 10.550781 6.96875 10.761719 7.175781 C 11.144531 7.558594 11.535156 7.945312 11.921875 8.320312 C 12.3125 8.710938 12.710938 9.105469 13.105469 9.488281 C 13.207031 9.328125 13.3125 9.152344 13.425781 8.984375 C 14.496094 7.296875 15.632812 5.664062 16.800781 4.039062 C 17.015625 3.734375 17.238281 3.425781 17.472656 3.121094 C 17.6875 2.808594 17.921875 2.488281 18.152344 2.175781 C 18.257812 2.03125 18.359375 1.878906 18.480469 1.726562 C 18.574219 1.585938 18.679688 1.449219 18.777344 1.304688 C 18.871094 1.183594 18.960938 1.054688 19.054688 0.929688 C 19.265625 0.640625 19.265625 0.640625 19.441406 0.472656 Z M 19.433594 0.433594 "/>
<path style=" stroke:none;fill-rule:nonzero;fill:rgb(95.294118%,95.294118%,95.294118%);fill-opacity:1;" d="M 19.433594 18.480469 C 19.183594 19.59375 18.902344 20.703125 18.609375 21.808594 C 18.566406 21.976562 18.519531 22.152344 18.464844 22.320312 C 18.089844 23.71875 17.679688 25.105469 17.246094 26.480469 C 16.832031 27.839844 16.464844 29.214844 16.097656 30.59375 C 15.832031 31.574219 15.542969 32.550781 15.222656 33.527344 C 14.761719 35.023438 14.375 36.542969 13.976562 38.054688 C 13.863281 38.054688 13.742188 38.054688 13.625 38.054688 C 12.007812 35.167969 10.585938 32.289062 9.398438 29.199219 C 9.34375 29.0625 9.296875 28.921875 9.230469 28.777344 C 7.609375 24.566406 7.609375 24.566406 7.640625 22.902344 C 9.375 22.097656 11.167969 21.449219 12.960938 20.785156 C 13.558594 20.566406 14.144531 20.351562 14.742188 20.128906 C 14.886719 20.070312 15.03125 20.023438 15.175781 19.96875 C 16.320312 19.542969 17.457031 19.113281 18.574219 18.65625 C 19.070312 18.480469 19.070312 18.480469 19.425781 18.480469 Z M 19.433594 18.480469 "/>
<path style=" stroke:none;fill-rule:nonzero;fill:rgb(95.294118%,95.294118%,95.294118%);fill-opacity:1;" d="M 19.960938 1.625 C 20.3125 1.625 20.3125 1.625 20.71875 1.992188 C 20.878906 2.152344 21.023438 2.3125 21.191406 2.480469 C 22.167969 3.441406 23.152344 4.382812 24.214844 5.273438 C 25.097656 6.023438 25.878906 6.847656 26.640625 7.703125 C 26.984375 8.089844 27.335938 8.464844 27.695312 8.839844 C 28.617188 9.800781 29.496094 10.800781 30.335938 11.847656 C 30.070312 12.433594 29.71875 12.847656 29.273438 13.304688 C 28.558594 14.054688 27.886719 14.816406 27.238281 15.609375 C 26.710938 16.230469 26.160156 16.847656 25.625 17.464844 C 24.9375 18.238281 24.304688 19.039062 23.679688 19.855469 C 23.503906 20.089844 23.320312 20.304688 23.128906 20.527344 C 23.015625 20.527344 22.894531 20.527344 22.777344 20.527344 C 22.542969 20.273438 22.328125 20.015625 22.121094 19.753906 C 22 19.601562 21.871094 19.441406 21.742188 19.28125 C 21.558594 19.046875 21.558594 19.046875 21.375 18.824219 C 20.71875 17.976562 20.71875 17.976562 19.792969 17.464844 C 19.855469 12.238281 19.902344 7.007812 19.96875 1.632812 Z M 19.960938 1.625 "/>
<path style=" stroke:none;fill-rule:nonzero;fill:rgb(94.901961%,94.901961%,94.901961%);fill-opacity:1;" d="M 35.441406 12.351562 C 35.617188 12.441406 35.617188 12.441406 35.792969 12.519531 C 34.640625 16.871094 34.640625 16.871094 34.023438 18.9375 C 33.585938 20.390625 33.199219 21.863281 32.816406 23.335938 C 32.535156 24.425781 32.230469 25.503906 31.910156 26.59375 C 31.59375 27.679688 31.320312 28.792969 31.039062 29.886719 C 30.929688 29.886719 30.808594 29.886719 30.6875 29.886719 C 30.382812 29.542969 30.097656 29.199219 29.816406 28.832031 C 29.144531 27.992188 28.472656 27.160156 27.753906 26.351562 C 27.070312 25.585938 26.414062 24.808594 25.777344 24.015625 C 25.503906 23.679688 25.222656 23.367188 24.929688 23.046875 C 24.847656 22.953125 24.761719 22.871094 24.679688 22.777344 C 24.441406 22.511719 24.207031 22.257812 23.96875 21.992188 C 23.648438 21.542969 23.648438 21.542969 23.648438 21.175781 C 23.863281 20.785156 24.105469 20.609375 24.480469 20.34375 C 25.175781 19.839844 25.832031 19.320312 26.496094 18.777344 C 27.488281 17.960938 28.503906 17.167969 29.527344 16.390625 C 29.945312 16.089844 30.351562 15.769531 30.761719 15.449219 C 31.847656 14.601562 32.96875 13.808594 34.152344 13.070312 C 34.273438 12.992188 34.398438 12.921875 34.519531 12.839844 C 34.816406 12.671875 35.121094 12.496094 35.425781 12.34375 Z M 35.441406 12.351562 "/>
<path style=" stroke:none;fill-rule:nonzero;fill:rgb(91.764706%,91.764706%,91.764706%);fill-opacity:1;" d="M 6.953125 7.929688 C 7.007812 7.929688 7.0625 7.929688 7.128906 7.929688 C 7.136719 9.542969 7.136719 11.152344 7.136719 12.761719 C 7.136719 13.519531 7.136719 14.265625 7.136719 15.015625 C 7.144531 15.734375 7.144531 16.464844 7.144531 17.183594 C 7.144531 17.457031 7.144531 17.726562 7.144531 18.007812 C 7.152344 19.425781 7.136719 20.816406 6.953125 22.222656 C 6.015625 22.222656 5.097656 22.222656 4.136719 22.222656 C 4.230469 20.816406 4.480469 19.472656 4.777344 18.097656 C 4.921875 17.464844 5.054688 16.839844 5.191406 16.207031 C 5.214844 16.070312 5.257812 15.945312 5.28125 15.808594 C 5.671875 13.960938 6.023438 12.097656 6.375 10.238281 C 6.40625 10.113281 6.433594 9.976562 6.457031 9.847656 C 6.496094 9.601562 6.550781 9.359375 6.601562 9.113281 C 6.761719 8.304688 6.761719 8.304688 6.953125 7.921875 Z M 6.953125 7.929688 "/>
<path style=" stroke:none;fill-rule:nonzero;fill:rgb(92.156863%,92.156863%,92.156863%);fill-opacity:1;" d="M 8.703125 6.390625 C 12.40625 9.367188 15.519531 13.480469 16.96875 17.96875 C 16.96875 18.191406 16.96875 18.414062 16.96875 18.648438 C 16.542969 18.839844 16.222656 18.992188 15.742188 18.984375 C 15.175781 18.726562 15.039062 18.3125 14.761719 17.785156 C 14.695312 17.671875 14.640625 17.566406 14.574219 17.449219 C 14.390625 17.089844 14.199219 16.742188 14.015625 16.382812 C 13.886719 16.136719 13.753906 15.886719 13.609375 15.640625 C 13.34375 15.128906 13.070312 14.625 12.800781 14.121094 C 12.246094 13.097656 11.679688 12.078125 11.121094 11.0625 C 10.960938 10.777344 10.800781 10.480469 10.640625 10.183594 C 10.535156 10.007812 10.441406 9.824219 10.335938 9.640625 C 10.191406 9.375 10.191406 9.375 10.054688 9.113281 C 9.855469 8.761719 9.664062 8.414062 9.457031 8.0625 C 9.359375 7.894531 9.265625 7.71875 9.160156 7.550781 C 9.039062 7.320312 9.039062 7.320312 8.894531 7.097656 C 8.710938 6.726562 8.710938 6.726562 8.710938 6.390625 Z M 8.703125 6.390625 "/>
</g>
</svg>
