<?xml version="1.0"?>
<svg width="49.99999999999999" height="49.99999999999999" xmlns="http://www.w3.org/2000/svg" xmlns:svg="http://www.w3.org/2000/svg" version="1.1">
 <g class="layer">
  <title>Layer 1</title>
  <g id="surface1">
   <path d="m24.29,0.54c0.95,0.06 1.49,0.7 2.14,1.31c0.22,0.19 0.44,0.39 0.66,0.6c0.11,0.11 0.23,0.21 0.34,0.32c0.4,0.34 0.79,0.68 1.19,1.01c1.07,0.89 2.07,1.86 3.06,2.83c0.32,0.31 0.64,0.62 0.96,0.92c1.15,1.12 2.26,2.25 3.31,3.45c0.11,0.13 0.23,0.26 0.34,0.38c0.32,0.36 0.64,0.72 0.96,1.09c0.15,0.17 0.15,0.17 0.32,0.36c0.78,0.88 0.78,0.88 1.02,1.36c1.92,0.02 3.83,-0.02 5.75,-0.17c0.43,-0.03 0.86,-0.04 1.29,-0.04c0.56,0.54 0.55,0.84 0.65,1.61c0.04,0.24 0.08,0.49 0.11,0.73c0.03,0.27 0.07,0.53 0.11,0.81c0.03,0.28 0.08,0.54 0.11,0.83c0.27,1.99 0.51,3.99 0.73,5.98c0.02,0.26 0.05,0.51 0.09,0.78c0.07,0.68 0.13,1.35 0.19,2.03c0.01,0.16 0.02,0.33 0.04,0.5c0.05,1.07 -0.23,1.73 -0.8,2.64c-0.08,0.13 -0.15,0.26 -0.24,0.38c-1.39,2.2 -3.09,4.21 -4.86,6.15c-0.27,0.31 -0.55,0.62 -0.82,0.93c-2.87,3.03 -7.05,4.85 -10.75,6.76c-0.58,0.31 -1.15,0.61 -1.74,0.92c-2.04,1.06 -4.11,2.03 -6.24,2.91c-0.22,0.09 -0.43,0.17 -0.65,0.27c-1.41,0.55 -2.8,0.98 -4.28,1.33c-1.19,-1.54 -2.14,-3.14 -3.02,-4.85c-0.07,-0.13 -0.13,-0.26 -0.2,-0.38c-2.1,-4.1 -3.92,-8.5 -5.08,-12.93c-0.08,-0.31 -0.08,-0.31 -0.16,-0.61c-0.11,-0.6 -0.11,-0.6 -0.11,-1.87c-2.29,-0.11 -2.29,-0.11 -4.62,-0.21c0,-1.92 0,-1.92 0.14,-2.61c0.03,-0.16 0.07,-0.32 0.11,-0.49c0.03,-0.16 0.07,-0.33 0.1,-0.5c0.04,-0.19 0.08,-0.36 0.12,-0.55c0.12,-0.6 0.25,-1.19 0.37,-1.79c0.09,-0.42 0.18,-0.83 0.26,-1.26c0.23,-1.1 0.46,-2.18 0.69,-3.29c0.24,-1.11 0.47,-2.21 0.7,-3.32c0.38,-1.8 0.77,-3.6 1.14,-5.4c0.03,-0.16 0.07,-0.32 0.1,-0.48c0.03,-0.16 0.08,-0.32 0.11,-0.48c0.07,-0.35 0.14,-0.7 0.22,-1.06c0.03,-0.18 0.08,-0.37 0.11,-0.57c0.03,-0.17 0.07,-0.34 0.11,-0.52c0.1,-0.46 0.1,-0.46 0.32,-1.1c1.12,0.07 1.68,0.67 2.43,1.42c0.12,0.12 0.24,0.24 0.37,0.36c0.38,0.38 0.78,0.78 1.17,1.16c0.26,0.27 0.53,0.52 0.79,0.78c0.48,0.48 0.97,0.96 1.45,1.43c0.49,0.49 0.99,0.98 1.48,1.46c0.13,-0.2 0.26,-0.42 0.4,-0.63c1.34,-2.11 2.76,-4.15 4.22,-6.18c0.27,-0.38 0.55,-0.77 0.84,-1.15c0.27,-0.39 0.56,-0.79 0.85,-1.18c0.13,-0.18 0.26,-0.37 0.41,-0.56c0.12,-0.18 0.25,-0.35 0.37,-0.53c0.12,-0.15 0.23,-0.31 0.35,-0.47c0.26,-0.36 0.26,-0.36 0.48,-0.57zm0,0" fill="rgb(1.568628%,1.568628%,1.568628%)" fill-rule="nonzero" id="svg_2"/>
   <path d="m24.29,23.1c-0.31,1.39 -0.66,2.78 -1.03,4.16c-0.05,0.21 -0.11,0.43 -0.18,0.64c-0.47,1.75 -0.98,3.48 -1.52,5.2c-0.52,1.7 -0.98,3.42 -1.44,5.14c-0.33,1.23 -0.69,2.45 -1.09,3.67c-0.58,1.87 -1.06,3.77 -1.56,5.66c-0.14,0 -0.29,0 -0.44,0c-2.02,-3.61 -3.8,-7.21 -5.28,-11.07c-0.07,-0.17 -0.13,-0.35 -0.21,-0.53c-2.03,-5.26 -2.03,-5.26 -1.99,-7.34c2.17,-1.01 4.41,-1.82 6.65,-2.65c0.75,-0.27 1.48,-0.54 2.23,-0.82c0.18,-0.07 0.36,-0.13 0.54,-0.2c1.43,-0.53 2.85,-1.07 4.25,-1.64c0.62,-0.22 0.62,-0.22 1.06,-0.22zm0,0" fill="rgb(95.294118%,95.294118%,95.294118%)" fill-rule="nonzero" id="svg_3"/>
   <path d="m24.95,2.03c0.44,0 0.44,0 0.95,0.46c0.2,0.2 0.38,0.4 0.59,0.61c1.22,1.2 2.45,2.38 3.78,3.49c1.1,0.94 2.08,1.97 3.03,3.04c0.43,0.48 0.87,0.95 1.32,1.42c1.15,1.2 2.25,2.45 3.3,3.76c-0.33,0.73 -0.77,1.25 -1.33,1.82c-0.89,0.94 -1.73,1.89 -2.54,2.88c-0.66,0.78 -1.35,1.55 -2.02,2.32c-0.86,0.97 -1.65,1.97 -2.43,2.99c-0.22,0.29 -0.45,0.56 -0.69,0.84c-0.14,0 -0.29,0 -0.44,0c-0.29,-0.32 -0.56,-0.64 -0.82,-0.97c-0.15,-0.19 -0.31,-0.39 -0.47,-0.59c-0.23,-0.29 -0.23,-0.29 -0.46,-0.57c-0.82,-1.06 -0.82,-1.06 -1.98,-1.7c0.08,-6.53 0.14,-13.07 0.22,-19.79zm0,0" fill="rgb(95.294118%,95.294118%,95.294118%)" fill-rule="nonzero" id="svg_4"/>
   <path d="m44.3,15.44c0.22,0.11 0.22,0.11 0.44,0.21c-1.44,5.44 -1.44,5.44 -2.21,8.02c-0.55,1.82 -1.03,3.66 -1.51,5.5c-0.35,1.36 -0.73,2.71 -1.13,4.07c-0.4,1.36 -0.74,2.75 -1.09,4.12c-0.14,0 -0.29,0 -0.44,0c-0.38,-0.43 -0.74,-0.86 -1.09,-1.32c-0.84,-1.05 -1.68,-2.09 -2.58,-3.1c-0.85,-0.96 -1.67,-1.93 -2.47,-2.92c-0.34,-0.42 -0.69,-0.81 -1.06,-1.21c-0.1,-0.12 -0.21,-0.22 -0.31,-0.34c-0.3,-0.33 -0.59,-0.65 -0.89,-0.98c-0.4,-0.56 -0.4,-0.56 -0.4,-1.02c0.27,-0.49 0.57,-0.71 1.04,-1.04c0.87,-0.63 1.69,-1.28 2.52,-1.96c1.24,-1.02 2.51,-2.01 3.79,-2.98c0.52,-0.38 1.03,-0.78 1.54,-1.18c1.36,-1.06 2.76,-2.05 4.24,-2.97c0.15,-0.1 0.31,-0.19 0.46,-0.29c0.37,-0.21 0.75,-0.43 1.13,-0.62zm0,0" fill="rgb(94.901961%,94.901961%,94.901961%)" fill-rule="nonzero" id="svg_5"/>
   <path d="m8.69,9.91c0.07,0 0.14,0 0.22,0c0.01,2.02 0.01,4.03 0.01,6.04c0,0.95 0,1.88 0,2.82c0.01,0.9 0.01,1.81 0.01,2.71c0,0.34 0,0.68 0,1.03c0.01,1.77 -0.01,3.51 -0.24,5.27c-1.17,0 -2.32,0 -3.52,0c0.12,-1.76 0.43,-3.44 0.8,-5.16c0.18,-0.79 0.35,-1.57 0.52,-2.36c0.03,-0.17 0.08,-0.33 0.11,-0.5c0.49,-2.31 0.93,-4.64 1.37,-6.96c0.04,-0.16 0.07,-0.33 0.1,-0.49c0.05,-0.31 0.12,-0.61 0.18,-0.92c0.2,-1.01 0.2,-1.01 0.44,-1.49zm0,0" fill="rgb(91.764706%,91.764706%,91.764706%)" fill-rule="nonzero" id="svg_6"/>
   <path d="m10.88,7.99c4.63,3.72 8.52,8.86 10.33,14.47c0,0.28 0,0.56 0,0.85c-0.53,0.24 -0.93,0.43 -1.53,0.42c-0.71,-0.32 -0.88,-0.84 -1.23,-1.5c-0.08,-0.14 -0.15,-0.27 -0.23,-0.42c-0.23,-0.45 -0.47,-0.88 -0.7,-1.33c-0.16,-0.31 -0.33,-0.62 -0.51,-0.93c-0.33,-0.64 -0.67,-1.27 -1.01,-1.9c-0.69,-1.28 -1.4,-2.55 -2.1,-3.82c-0.2,-0.36 -0.4,-0.73 -0.6,-1.1c-0.13,-0.22 -0.25,-0.45 -0.38,-0.68c-0.18,-0.33 -0.18,-0.33 -0.35,-0.66c-0.25,-0.44 -0.49,-0.87 -0.75,-1.31c-0.12,-0.21 -0.24,-0.43 -0.37,-0.64c-0.15,-0.29 -0.15,-0.29 -0.33,-0.57c-0.23,-0.46 -0.23,-0.46 -0.23,-0.88zm0,0" fill="rgb(92.156863%,92.156863%,92.156863%)" fill-rule="nonzero" id="svg_7"/>
  </g>
 </g>

</svg>